<?xml version="1.0" encoding="utf-8"?>
<!-- Generator: Adobe Illustrator 21.1.0, SVG Export Plug-In . SVG Version: 6.00 Build 0)  -->
<svg version="1.1"
	 id="svg2" xmlns:cc="http://creativecommons.org/ns#" xmlns:dc="http://purl.org/dc/elements/1.1/" xmlns:rdf="http://www.w3.org/1999/02/22-rdf-syntax-ns#" xmlns:svg="http://www.w3.org/2000/svg"
	 xmlns="http://www.w3.org/2000/svg" xmlns:xlink="http://www.w3.org/1999/xlink" x="0px" y="0px" viewBox="0 0 580 227"
	 style="enable-background:new 0 0 580 227;" xml:space="preserve">
<style type="text/css">
	.st0{fill:none;stroke:#394D54;stroke-width:10.5;stroke-linecap:round;stroke-linejoin:round;}
	.st1{fill:#394D54;}
	.st2{clip-path:url(#SVGID_2_);}
	.st3{fill:#00ACD3;}
	.st4{fill:#20C2EF;}
	.st5{stroke:#394D54;stroke-width:1.56;}
	.st6{clip-path:url(#SVGID_4_);fill:#17B5EB;}
	.st7{clip-path:url(#SVGID_6_);fill-opacity:0.17;}
	.st8{clip-path:url(#SVGID_8_);fill:#D4EDF1;}
	.st9{clip-path:url(#SVGID_10_);fill-opacity:8.500000e-02;}
	.st10{fill:none;stroke:#394D54;stroke-width:3.4;stroke-linecap:round;}
	.st11{fill:#D4EDF1;}
	.st12{fill:#0070C0;}
	.st13{font-family:'ArialMT';}
	.st14{font-size:53px;}
</style>
<path id="path12" class="st0" d="M437.8,113.2l0-25.6L437.7,42 M463.5,61.7l-25.7,26l25.9,25.6 M291.3,88c0.1-5.5-1.5-11.1-4.7-15.6
	c-4.7-6.5-12.2-11-20.4-11.1c-0.6,0-1.1,0-1.7,0c-3.3,0.2-6.4,0.7-9.2,1.8c-18.4,7.7-21.7,33.2-6.1,44.8c13.4,10,33,5.9,39.8-9.4
	C290.3,95.4,291.3,91.3,291.3,88l0-46.2 M415.4,64.4c-3.8-2.5-8.3-3.3-12.7-3.3c-0.5,0-1,0-1.4,0c-12.7,0.5-24.5,9.5-24.5,27
	c0,20.6,22.1,31.7,38.6,22 M489.6,107.8c13-11.1,39.1-33.5,39.1-33.5s-0.9-1.8-1.6-2.6c-5.3-7.1-13.3-10.6-21.7-10.6
	C484.4,61.1,468.8,88.1,489.6,107.8c1.4,1.4,3.4,2.4,5.6,3.3c7.6,3.2,18.1,2.9,23.8-1.3 M334,61.2c-0.6,0-1.2,0.1-1.8,0.1
	c-15.9,0.3-27.3,16.8-23.8,32c3.4,14.9,19.6,23.7,33.7,18.8c16.4-4.3,23-24.9,14-38.8C351.2,65.7,342.9,61,334,61.2L334,61.2z
	 M574.7,61.7c-6.4,0-12.7,2.3-17.3,6.6c-7.3,6-8.9,13.6-8.8,23.3l0.2,21.9"/>
<path id="path14" class="st1" d="M117.5,45.7h22.9v23.4h11.6c5.3,0,10.8-1,15.9-2.7c2.5-0.8,5.3-2,7.7-3.5
	c-3.2-4.2-4.9-9.5-5.4-14.8c-0.7-7.1,0.8-16.4,5.6-22l2.4-2.8l2.9,2.3c7.2,5.8,13.3,13.9,14.3,23.1c8.7-2.6,18.9-2,26.5,2.5l3.1,1.8
	l-1.7,3.2c-6.5,12.6-20,16.5-33.2,15.9c-19.8,49.3-62.9,72.7-115.2,72.7c-27,0-51.8-10.1-65.9-34c-0.8-1.5-1.5-3-2.3-4.6
	C2.1,95.7,0.5,84.1,1.6,72.6l0.3-3.5h19.6V45.7h22.9V22.9H90V0h27.4L117.5,45.7"/>
<g>
	<defs>
		<path id="SVGID_1_" d="M46,2v46H24v23H5.6c-0.1,0.7-0.1,1.3-0.2,2c-1.2,12.5,1,24.1,6.1,34l1.7,3c1,1.8,2.2,3.5,3.4,5.2
			c1.2,1.7,1.7,2.6,2.5,3.7C32.3,133.8,52.1,141,75,141c50.6,0,93.6-22.4,112.7-72.8c13.5,1.4,26.4-2.1,32.3-13.6
			c-9.4-5.4-21.5-3.7-28.4-0.2L210,2l-72,46h-23V2H46z"/>
	</defs>
	<clipPath id="SVGID_2_">
		<use xlink:href="#SVGID_1_"  style="overflow:visible;"/>
	</clipPath>
	<g class="st2">
		<g>
			<g id="g20" transform="translate(0,-22.866)">
				<path id="path22" class="st3" d="M93.9,3.8h19.8v19.8H93.9L93.9,3.8z"/>
				<path id="path24" class="st4" d="M93.9,26.7h19.8v19.8H93.9L93.9,26.7z"/>
				<path id="path26" class="st5" d="M96.3,22V5.5 M99.3,22V5.5 M102.3,22V5.5 M105.3,22V5.5 M108.3,22V5.5 M111.2,22V5.5"/>
				<g id="use28" transform="translate(0,22.866)">
					<path id="path26_1_" class="st5" d="M96.3,44.8V28.3 M99.3,44.8V28.3 M102.3,44.8V28.3 M105.3,44.8V28.3 M108.3,44.8V28.3
						 M111.2,44.8V28.3"/>
				</g>
			</g>
			<g id="g18">
				<g id="g20_1_" transform="translate(0,-22.866)">
					<path id="path22_1_" class="st3" d="M116.7,46.5h19.8V26.7h-19.8L116.7,46.5z"/>
					<path id="path24_1_" class="st4" d="M116.7,23.6h19.8V3.8h-19.8L116.7,23.6z"/>
					<path id="path26_2_" class="st5" d="M119.2,28.3v16.5 M122.1,28.3v16.5 M125.1,28.3v16.5 M128.1,28.3v16.5 M131.1,28.3v16.5
						 M134.1,28.3v16.5"/>
					<g id="use30" transform="matrix(1,0,0,-1,22.866,4.572651)">
						<path id="path26_3_" class="st5" d="M119.2,5.5V22 M122.1,5.5V22 M125.1,5.5V22 M128.1,5.5V22 M131.1,5.5V22 M134.1,5.5V22"/>
					</g>
				</g>
			</g>
			<g>
				<g>
					<g id="g20_2_" transform="translate(0,-22.866)">
						<path id="path22_2_" class="st3" d="M2.4,49.5h19.8v19.8H2.4L2.4,49.5z"/>
						<path id="path24_2_" class="st4" d="M2.4,72.4h19.8v19.8H2.4L2.4,72.4z"/>
						<path id="path26_4_" class="st5" d="M4.8,67.7V51.2 M7.8,67.7V51.2 M10.8,67.7V51.2 M13.8,67.7V51.2 M16.8,67.7V51.2
							 M19.8,67.7V51.2"/>
						<g id="use28_1_" transform="translate(0,22.866)">
							<path id="path26_5_" class="st5" d="M4.8,90.6V74.1 M7.8,90.6V74.1 M10.8,90.6V74.1 M13.8,90.6V74.1 M16.8,90.6V74.1
								 M19.8,90.6V74.1"/>
						</g>
					</g>
					<g id="g18_1_">
						<g id="g20_3_" transform="translate(0,-22.866)">
							<path id="path22_3_" class="st3" d="M25.3,92.2h19.8V72.4H25.3L25.3,92.2z"/>
							<path id="path24_3_" class="st4" d="M25.3,69.4h19.8V49.5H25.3L25.3,69.4z"/>
							<path id="path26_6_" class="st5" d="M27.7,74.1v16.5 M30.7,74.1v16.5 M33.7,74.1v16.5 M36.7,74.1v16.5 M39.7,74.1v16.5
								 M42.6,74.1v16.5"/>
							<g id="use32" transform="translate(-91.464,45.732)">
								<path id="path26_7_" class="st5" d="M27.7,51.2v16.5 M30.7,51.2v16.5 M33.7,51.2v16.5 M36.7,51.2v16.5 M39.7,51.2v16.5
									 M42.6,51.2v16.5"/>
							</g>
						</g>
					</g>
					<g>
						<g>
							<g id="g20_4_" transform="translate(0,-22.866)">
								<path id="path22_4_" class="st3" d="M48.1,49.5h19.8v19.8H48.1L48.1,49.5z"/>
								<path id="path24_4_" class="st4" d="M48.1,72.4h19.8v19.8H48.1L48.1,72.4z"/>
								<path id="path26_8_" class="st5" d="M50.6,67.7V51.2 M53.5,67.7V51.2 M56.5,67.7V51.2 M59.5,67.7V51.2 M62.5,67.7V51.2
									 M65.5,67.7V51.2"/>
								<g id="use28_2_" transform="translate(0,22.866)">
									<path id="path26_9_" class="st5" d="M50.6,90.6V74.1 M53.5,90.6V74.1 M56.5,90.6V74.1 M59.5,90.6V74.1 M62.5,90.6V74.1
										 M65.5,90.6V74.1"/>
								</g>
							</g>
							<g id="g18_2_">
								<g id="g20_5_" transform="translate(0,-22.866)">
									<path id="path22_5_" class="st3" d="M71,92.2h19.8V72.4H71L71,92.2z"/>
									<path id="path24_5_" class="st4" d="M71,69.4h19.8V49.5H71L71,69.4z"/>
									<path id="path26_10_" class="st5" d="M73.4,74.1v16.5 M76.4,74.1v16.5 M79.4,74.1v16.5 M82.4,74.1v16.5 M85.4,74.1v16.5
										 M88.4,74.1v16.5"/>
									<g id="use34" transform="translate(-45.732,45.732)">
										<path id="path26_11_" class="st5" d="M73.4,51.2v16.5 M76.4,51.2v16.5 M79.4,51.2v16.5 M82.4,51.2v16.5 M85.4,51.2v16.5
											 M88.4,51.2v16.5"/>
									</g>
								</g>
							</g>
							<g>
								<g id="g16">
									<g id="g20_6_" transform="translate(0,-22.866)">
										<path id="path22_6_" class="st3" d="M93.9,49.5h19.8v19.8H93.9L93.9,49.5z"/>
										<path id="path24_6_" class="st4" d="M93.9,72.4h19.8v19.8H93.9L93.9,72.4z"/>
										<path id="path26_12_" class="st5" d="M96.3,67.7V51.2 M99.3,67.7V51.2 M102.3,67.7V51.2 M105.3,67.7V51.2 M108.3,67.7
											V51.2 M111.2,67.7V51.2"/>
										<g id="use28_3_" transform="translate(0,22.866)">
											<path id="path26_13_" class="st5" d="M96.3,90.6V74.1 M99.3,90.6V74.1 M102.3,90.6V74.1 M105.3,90.6V74.1 M108.3,90.6
												V74.1 M111.2,90.6V74.1"/>
										</g>
									</g>
									<g id="g18_3_">
										<g id="g20_7_" transform="translate(0,-22.866)">
											<path id="path22_7_" class="st3" d="M116.7,92.2h19.8V72.4h-19.8L116.7,92.2z"/>
											<path id="path24_7_" class="st4" d="M116.7,69.4h19.8V49.5h-19.8L116.7,69.4z"/>
											<path id="path26_14_" class="st5" d="M119.2,74.1v16.5 M122.1,74.1v16.5 M125.1,74.1v16.5 M128.1,74.1v16.5 M131.1,74.1
												v16.5 M134.1,74.1v16.5"/>
											<g id="use36" transform="translate(0,45.732)">
												<path id="path26_15_" class="st5" d="M119.2,51.2v16.5 M122.1,51.2v16.5 M125.1,51.2v16.5 M128.1,51.2v16.5 M131.1,51.2
													v16.5 M134.1,51.2v16.5"/>
											</g>
										</g>
									</g>
								</g>
								<g>
									<defs>
										<path id="SVGID_3_" d="M46,2v46H24v23H5.6c-0.1,0.7-0.1,1.3-0.2,2c-1.2,12.5,1,24.1,6.1,34l1.7,3c1,1.8,2.2,3.5,3.4,5.2
											c1.2,1.7,1.7,2.6,2.5,3.7C32.3,133.8,52.1,141,75,141c50.6,0,93.6-22.4,112.7-72.8c13.5,1.4,26.4-2.1,32.3-13.6
											c-9.4-5.4-21.5-3.7-28.4-0.2L210,2l-72,46h-23V2H46z"/>
									</defs>
									<clipPath id="SVGID_4_">
										<use xlink:href="#SVGID_3_"  style="overflow:visible;"/>
									</clipPath>
									<path id="path38" class="st6" d="M191.6,54.4c1.5-11.9-7.4-21.3-12.9-25.7c-6.4,7.4-7.4,26.7,2.6,34.8
										c-5.6,5-17.3,9.4-29.4,9.4H4C2.8,85.5,4,146,4,146h217l-1-91.4C210.6,49.2,198.5,50.9,191.6,54.4"/>
								</g>
								<g>
									<defs>
										<path id="SVGID_5_" d="M46,2v46H24v23H5.6c-0.1,0.7-0.1,1.3-0.2,2c-1.2,12.5,1,24.1,6.1,34l1.7,3c1,1.8,2.2,3.5,3.4,5.2
											c1.2,1.7,1.7,2.6,2.5,3.7C32.3,133.8,52.1,141,75,141c50.6,0,93.6-22.4,112.7-72.8c13.5,1.4,26.4-2.1,32.3-13.6
											c-9.4-5.4-21.5-3.7-28.4-0.2L210,2l-72,46h-23V2H46z"/>
									</defs>
									<clipPath id="SVGID_6_">
										<use xlink:href="#SVGID_5_"  style="overflow:visible;"/>
									</clipPath>
									<path id="path40" class="st7" d="M4,89v57h217V89"/>
								</g>
								<g>
									<defs>
										<path id="SVGID_7_" d="M46,2v46H24v23H5.6c-0.1,0.7-0.1,1.3-0.2,2c-1.2,12.5,1,24.1,6.1,34l1.7,3c1,1.8,2.2,3.5,3.4,5.2
											c1.2,1.7,1.7,2.6,2.5,3.7C32.3,133.8,52.1,141,75,141c50.6,0,93.6-22.4,112.7-72.8c13.5,1.4,26.4-2.1,32.3-13.6
											c-9.4-5.4-21.5-3.7-28.4-0.2L210,2l-72,46h-23V2H46z"/>
									</defs>
									<clipPath id="SVGID_8_">
										<use xlink:href="#SVGID_7_"  style="overflow:visible;"/>
									</clipPath>
									<path id="path42" class="st8" d="M81.2,140.9c-13.5-6.4-21-15.2-25.1-24.7L15,118l21,28L81.2,140.9"/>
								</g>
								<g>
									<defs>
										<path id="SVGID_9_" d="M46,2v46H24v23H5.6c-0.1,0.7-0.1,1.3-0.2,2c-1.2,12.5,1,24.1,6.1,34l1.7,3c1,1.8,2.2,3.5,3.4,5.2
											c1.2,1.7,1.7,2.6,2.5,3.7C32.3,133.8,52.1,141,75,141c50.6,0,93.6-22.4,112.7-72.8c13.5,1.4,26.4-2.1,32.3-13.6
											c-9.4-5.4-21.5-3.7-28.4-0.2L210,2l-72,46h-23V2H46z"/>
									</defs>
									<clipPath id="SVGID_10_">
										<use xlink:href="#SVGID_9_"  style="overflow:visible;"/>
									</clipPath>
									<path id="path44" class="st9" d="M192.5,53.9L192.5,53.9c-20.9,26.9-50.8,50.4-82.9,62.8c-28.7,11-53.6,11.1-70.9,2.2
										c-1.9-1-3.7-2.2-5.5-3.3c-12.6-8.8-19.8-23.4-19.2-42.7H4V146h217V50h-25L192.5,53.9z"/>
								</g>
								<path id="path46" class="st10" d="M15.6,117c14.2,0.8,29.3,0.9,42.5-3.2"/>
								<path id="path48" class="st11" d="M72.2,107c0,3-2.4,5.5-5.5,5.5c-3,0-5.5-2.4-5.5-5.5c0-3,2.4-5.5,5.5-5.5
									C69.7,101.5,72.2,103.9,72.2,107z"/>
								<path id="path50" class="st1" d="M68.1,103.3c-0.5,0.3-0.8,0.8-0.8,1.4c0,0.9,0.7,1.6,1.6,1.6c0.6,0,1.1-0.3,1.4-0.8
									c0.2,0.5,0.3,1,0.3,1.5c0,2.2-1.8,3.9-3.9,3.9c-2.2,0-3.9-1.8-3.9-3.9c0-2.2,1.8-3.9,3.9-3.9
									C67.2,103,67.7,103.1,68.1,103.3z"/>
								<path id="path52" class="st1" d="M-30,90.2h254.3c-5.5-1.4-17.5-3.3-15.5-10.6c-10.1,11.7-34.4,8.2-40.5,2.4
									c-6.8,9.9-46.6,6.1-49.3-1.6c-8.6,10-35.1,10-43.6,0C72.6,88.2,32.9,91.9,26,82c-6.1,5.7-30.4,9.2-40.5-2.4
									C-12.5,86.9-24.5,88.8-30,90.2"/>
							</g>
						</g>
					</g>
				</g>
			</g>
		</g>
	</g>
</g>
<text transform="matrix(1 0 0 1 45.5217 225)" class="st12 st13 st14">StaPH-B User Guide</text>
</svg>
